<?xml version="1.0" encoding="UTF-8" standalone="no"?>
<!-- Created with Inkscape (http://www.inkscape.org/) -->

<svg
   version="1.1"
   id="svg1"
   width="880"
   height="128"
   viewBox="0 0 880.00001 128"
   sodipodi:docname="website-banner.svg"
   xml:space="preserve"
   inkscape:export-filename="tabi-logo2-pixelled.png"
   inkscape:export-xdpi="96"
   inkscape:export-ydpi="96"
   inkscape:version="1.4.3 (0d15f75042, 2025-12-25)"
   xmlns:inkscape="http://www.inkscape.org/namespaces/inkscape"
   xmlns:sodipodi="http://sodipodi.sourceforge.net/DTD/sodipodi-0.dtd"
   xmlns="http://www.w3.org/2000/svg"
   xmlns:svg="http://www.w3.org/2000/svg"><defs
     id="defs1" /><sodipodi:namedview
     id="namedview1"
     pagecolor="#505050"
     bordercolor="#eeeeee"
     borderopacity="1"
     inkscape:showpageshadow="0"
     inkscape:pageopacity="0"
     inkscape:pagecheckerboard="0"
     inkscape:deskcolor="#505050"
     inkscape:zoom="0.89813575"
     inkscape:cx="552.81175"
     inkscape:cy="197.63159"
     inkscape:window-width="1920"
     inkscape:window-height="1008"
     inkscape:window-x="0"
     inkscape:window-y="0"
     inkscape:window-maximized="1"
     inkscape:current-layer="g1"><inkscape:page
       x="0"
       y="0"
       width="880"
       height="128"
       id="page2"
       margin="0"
       bleed="0" /></sodipodi:namedview><g
     inkscape:groupmode="layer"
     inkscape:label="Image"
     id="g1"
     transform="translate(-3716.4079,1484.1102)"><path
       style="fill:#ffffff;stroke-width:0.355495"
       d="m 4021.5561,-1356.2592 -1.0221,0.149 -0.6221,-0.175 -0.6221,-0.1751 v -8.8613 -8.8613 l 0.6221,-0.024 0.6221,-0.024 4.266,-0.065 4.2659,-0.065 v -28.7951 -28.7951 l -4.5326,-0.1 -4.5325,-0.099 v -15.4534 -15.4535 h 17.9504 17.9504 l 0.091,28.884 0.091,28.884 3.9956,0.1005 3.9955,0.1005 0.093,15.3635 0.093,15.3636 1.8664,0.1074 1.8663,0.1075 v 8.8688 8.8688 h -22.7072 -22.7073 z m -261.0668,-0.149 h -26.6621 v -8.8874 -8.8873 h 4.6235 4.6235 l -0.091,-28.884 -0.091,-28.884 -4.5288,-0.1 -4.5288,-0.099 -0.093,-15.3645 -0.093,-15.3646 -8.6207,-0.095 -8.6208,-0.095 v -8.5255 -8.5256 h 44.0814 44.0814 v 8.5285 8.5285 l -17.3304,0.092 -17.3303,0.092 v 28.7951 28.7951 l 3.9955,0.1005 3.9956,0.1005 0.093,15.3635 0.093,15.3636 4.5326,0.1 4.5326,0.099 v 8.8767 8.8768 z m 69.9514,-0.083 -9.1463,0.095 -0.097,-6.8493 -0.097,-6.8492 -3.9955,-0.1005 -3.9956,-0.1005 -0.093,-15.3636 -0.093,-15.3635 -4.5326,-0.1 -4.5326,-0.1 v -8.515 -8.5149 l 8.6208,-0.095 8.6207,-0.095 v -6.7544 -6.7544 l -3.9993,-0.1005 -3.9993,-0.1006 v -17.3959 -17.396 l 3.9993,-0.1005 3.9993,-0.1005 0.097,-6.4878 0.097,-6.4878 h 26.6461 26.6461 l 0.097,6.4878 0.097,6.4878 8.6188,0.095 8.6188,0.095 0.091,30.8328 0.091,30.8329 3.9993,0.1005 3.9993,0.1006 v 17.396 17.3959 l -3.9993,0.1005 -3.9993,0.1006 -0.097,6.8432 -0.097,6.8433 h -9.2352 -9.2352 v -8.8768 -8.8767 l 4.5325,-0.099 4.5326,-0.1 v -13.331 -13.3311 l -4.5262,-0.1 -4.5261,-0.099 -0.095,-8.4325 -0.095,-8.4324 -16.7952,-0.092 -16.7951,-0.092 -0.091,30.8427 -0.091,30.8427 z m 26.1212,-79.6334 16.7971,-0.092 v -6.3989 -6.3989 l -8.6131,-0.095 -8.6131,-0.095 -0.096,-6.837 -0.097,-6.837 -8.0875,-0.096 -8.0876,-0.096 v 13.519 13.5189 z m 104.932,79.6292 -35.2219,0.091 -0.2388,-0.2387 -0.2386,-0.2387 v -6.6951 -6.6952 h -8.7097 -8.7096 v -17.4192 -17.4193 h 4.6235 4.6235 l -0.091,-28.884 -0.091,-28.884 -4.5325,-0.1 -4.5326,-0.1 v -8.5212 -8.5213 h 35.5495 35.5495 v 6.5766 6.5767 h 8.7097 8.7096 v 24.3514 24.3514 h 7.9986 7.9987 v 23.9892 23.9891 l -7.9098,0.096 -7.9098,0.096 -0.1777,6.7544 -0.1778,6.7544 z m 13.3338,-17.7721 12.6453,-0.093 v -13.331 -13.3311 l -4.5262,-0.1 -4.5262,-0.099 -0.095,-8.4325 -0.095,-8.4324 h -16.886 -16.886 v 15.2863 15.2863 l 8.6207,0.095 8.6208,0.095 v 6.3333 6.3334 l 0.2414,0.2414 0.2414,0.2414 z m -4.774,-10.9359 h -3.7327 v -3.9104 -3.9105 h 3.7327 3.7327 v 3.9105 3.9104 z m -8.6306,-50.9212 16.807,-0.092 v -6.3989 -6.3989 l -8.6131,-0.095 -8.6131,-0.095 -0.097,-6.837 -0.096,-6.837 h -8.1764 -8.1763 l -0.093,12.974 -0.093,12.9741 0.1725,0.4494 0.1724,0.4494 z m -40.7832,78.6498 h -0.8017 l -0.4513,-0.5438 -0.4513,-0.5437 0.4001,-0.8782 0.4002,-0.8782 h 0.904 0.9039 l 0.4002,0.8782 0.4001,0.8782 -0.4513,0.5437 -0.4512,0.5438 z m -72.7998,-27.8053 -3.8337,0.101 0.101,-3.8337 0.101,-3.8337 h 3.7327 3.7327 v 3.7327 3.7327 z m -49.3307,-3.1227 h -1.0709 l -0.1947,-0.5074 -0.1947,-0.5074 0.117,-0.8257 0.117,-0.8258 0.9191,-0.1068 0.9192,-0.1069 0.4536,0.5466 0.4537,0.5466 -0.2242,0.8934 -0.2243,0.8934 z m -20.6137,-21.6853 h -1.3841 l -0.368,-0.6876 -0.368,-0.6876 v -0.6793 -0.6792 l 0.6501,-0.5884 0.6501,-0.5883 h 0.9496 0.9497 l 0.711,0.711 0.711,0.711 v 0.6856 0.6856 l -0.5587,0.5586 -0.5586,0.5586 z m 17.6219,-6.0434 h -3.7447 v -3.9228 -3.9229 l 3.6438,0.1013 3.6439,0.1013 0.1008,3.8215 0.1009,3.8216 z m 271.6298,-3.1994 h -0.8452 l -0.4513,-0.5438 -0.4513,-0.5438 0.4001,-0.8782 0.4002,-0.8782 h 0.8964 0.8963 v 1.422 1.422 z m -62.1785,-27.8054 -3.8337,0.101 0.101,-3.8337 0.1011,-3.8337 h 3.7327 3.7327 v 3.7327 3.7327 z m -279.3012,-0.2788 h -1.6975 l -0.9372,-0.9372 -0.9372,-0.9372 v -1.6974 -1.6974 l 1.0938,-0.9203 1.0938,-0.9204 h 1.422 1.4221 l 1.0391,1.0392 1.0391,1.0391 v 1.4221 1.422 l -0.9203,1.0938 -0.9204,1.0937 z m 303.5759,-19.9077 h -11.7313 v -7.9986 -7.9987 h 11.7313 11.7314 v 7.9987 7.9986 z m -143.5189,-13.9316 -1.1432,0.1105 -0.2296,-0.9149 -0.2297,-0.915 0.4537,-0.5466 0.4536,-0.5466 0.9192,0.1069 0.9191,0.1068 v 1.2442 1.2443 z m 104.9349,0 -1.0792,0.1057 -0.2539,-0.2538 -0.2538,-0.2538 v -1.0005 -1.0005 l 0.8933,-0.2242 0.8934,-0.2242 0.5466,0.4536 0.5466,0.4537 -0.1069,0.9191 -0.1068,0.9192 z"
       id="path1"
       sodipodi:nodetypes="ccccccccccccccccccccccccccccccccccccccccccccccccccccccccccccccccccccccccccccccccccccccccccccccccccccccccccccccccccccccccccccccccccccccccccccccccccccccccccccccccccccccccccccccccccccccccccccccccccccccccccccccccccccccccccccccccccccccccccccccccccccccccccccccccccccccccccccccccccccccccccccccccccccccccccccccccccccccccccccccccccccccccccccccccccccccc" /><path
       d="m 4137.6734,-1356.1321 h -17.7921 v -8.4541 -8.4541 l 0.8157,-0.313 0.8157,-0.3131 h 7.9515 7.9514 v -6.9621 -6.9622 h -17.246 -17.2461 l -0.2802,-0.4534 -0.2802,-0.4533 -0.076,-16.6942 -0.076,-16.6942 0.068,-7.3489 0.068,-7.3489 3.481,-0.01 3.4811,-0.01 0.6298,-0.4002 0.6299,-0.4002 0.1436,-7.4566 0.1439,-7.4565 h 22.1757 22.1757 l 0.1443,7.2095 0.1442,7.2095 0.5245,0.5263 0.5243,0.5261 8.3564,0.2578 8.3564,0.258 v 24.2385 24.2387 l -4.3836,0.2578 -4.3836,0.2578 -0.1427,7.6068 -0.1426,7.6068 h -3.751 -3.751 l -0.6188,0.6189 -0.6189,0.6189 v 7.3747 7.3747 z m 4.6414,-33.0057 h 3.226 l 0.5843,-0.7043 0.5846,-0.7042 -0.1346,-22.1161 -0.1345,-22.1162 -8.4707,-0.1422 -8.4707,-0.1421 -0.4174,0.6578 -0.4176,0.6579 -0.01,7.091 -0.01,7.0912 -3.7389,0.01 -3.7389,0.01 -0.6607,0.4192 -0.6608,0.4194 0.1451,6.6639 0.145,6.6638 8.7671,0.258 8.7671,0.2578 0.1442,7.1854 0.1441,7.1855 0.5637,0.6792 0.5636,0.6792 z m 410.475,32.8854 -12.9272,0.1377 -0.3524,-0.3525 -0.3524,-0.3524 v -8.1104 -8.1103 l 0.8156,-0.313 0.8158,-0.3131 h 3.2069 3.2068 l 0.6189,-0.6188 0.6188,-0.6189 v -7.1169 -7.1168 l 3.4811,-0.01 3.4811,-0.01 0.6607,-0.4192 0.6607,-0.4193 -0.1451,-6.6639 -0.1449,-6.664 -3.9591,-0.1499 -3.9591,-0.15 -0.1666,-7.4766 -0.1666,-7.4767 -0.7736,-0.488 -0.7736,-0.488 -8.1087,-0.01 -8.1088,-0.01 -0.1427,-7.6068 -0.1427,-7.6068 -4.11,-0.1526 -4.11,-0.1528 -0.3946,-0.6208 -0.3946,-0.6209 v -6.9621 -6.9622 l 0.311,-1.1604 0.3109,-1.1603 h 13.0807 13.0809 l 0.2706,1.1603 0.2707,1.1604 0.1259,6.7042 0.126,6.7043 4.2409,0.1496 4.241,0.1496 0.1426,7.5861 0.1427,7.5862 3.8224,0.1532 3.8224,0.1532 0.4243,-0.6688 0.4243,-0.669 0.01,-7.0911 0.01,-7.0911 3.7389,-0.01 3.739,-0.01 0.6297,-0.4002 0.6299,-0.4002 0.1437,-7.4565 0.1438,-7.4566 10.7011,-0.1395 10.701,-0.1393 v 8.7776 8.7776 h -1.7405 -1.7405 l -0.3224,1.6116 -0.3223,1.6116 v 6.1241 6.1241 h -3.3099 -3.31 l -0.8157,0.3131 -0.8158,0.3131 v 15.361 15.3611 l -0.8157,0.313 -0.8158,0.3131 h -3.5127 -3.5126 l -0.3131,0.8157 -0.313,0.8157 v 6.9201 6.9199 l -3.7389,0.01 -3.739,0.01 -0.6298,0.4002 -0.6298,0.4002 -0.1438,7.4565 -0.1437,7.4566 z m -339.2924,-15.8669 h -13.6527 l -0.1428,-7.6068 -0.1426,-7.6068 -8.2393,-0.1425 -8.2394,-0.1426 -0.4144,-0.4145 -0.4146,-0.4145 v -15.6144 -15.6145 l 0.5961,-0.7181 0.5959,-0.7181 h 3.4437 3.4438 l 0.6189,-0.619 0.6188,-0.6188 v -7.1169 -7.1168 l 3.9968,-0.067 3.9968,-0.067 4.1935,0.1167 4.1935,0.1166 0.4479,-0.6944 0.448,-0.6943 0.2578,-7.22 0.2578,-7.22 12.9595,-0.1377 12.9592,-0.1376 0.3133,1.169 0.3133,1.1691 0.01,6.5202 0.01,6.5202 0.7041,0.2701 0.7039,0.2702 12.2419,0.045 12.2418,0.045 0.4628,0.2861 0.4628,0.286 v 23.1215 23.1216 l 0.8158,0.3131 0.8157,0.313 h 3.5678 3.5679 v 8.5093 8.5092 h -17.7882 -17.7882 l -0.1329,-31.3296 -0.1329,-31.3297 -8.4708,-0.1422 -8.4706,-0.1421 -0.4175,0.6579 -0.4175,0.6578 -0.01,7.0911 -0.01,7.0911 h -3.5679 -3.5678 l -0.8159,0.313 -0.8156,0.313 v 14.3217 14.3218 l 0.6768,0.5617 0.6769,0.5617 7.8588,0.01 h 7.8588 l 0.4893,0.3025 0.4894,0.3023 v 8.2209 8.2209 z m 80.4378,0 h -13.1508 l -0.048,-7.3489 -0.049,-7.3489 0.01,-48.3933 0.01,-48.3935 0.2532,-0.2532 0.2531,-0.2531 12.7679,0.042 12.768,0.042 0.2003,0.2003 0.2002,0.2003 0.01,48.1465 0.01,48.1467 -0.037,7.6068 -0.037,7.6067 z m 35.3265,0 h -13.4086 v -55.6667 -55.6668 l 0.4398,-0.2719 0.4399,-0.2719 8.7142,-0.054 8.714,-0.054 4.2546,0.038 4.2546,0.038 v 55.9552 55.955 z m 62.7883,-0.1233 -22.0468,0.1344 -0.01,-6.5809 -0.01,-6.5809 -0.3078,-1.1482 -0.3077,-1.148 -8.5813,-0.1412 -8.5812,-0.1411 v -16.503 -16.5028 l 4.1257,-0.2579 4.1257,-0.2578 0.1442,-7.2096 0.1443,-7.2095 0.4207,-0.4207 0.4207,-0.4207 h 7.694 7.6939 l 0.6224,-0.3846 0.6223,-0.3847 0.1437,-7.4566 0.1438,-7.4565 h 13.4086 13.4086 l 0.1441,7.1854 0.1441,7.1855 0.5812,0.7003 0.5812,0.7004 8.5576,-0.069 8.5576,-0.069 3.9968,0.048 3.9968,0.047 v 16.503 16.5028 h -30.9576 -30.9574 l 0.1435,7.0912 0.1434,7.091 21.617,0.1084 21.6169,0.1084 0.4294,0.6652 0.4294,0.6652 -0.1284,7.7356 -0.1285,7.7358 z m 0.2148,-48.8696 h 12.807 v -6.9621 -6.9621 h -13.1508 -13.1506 v 6.6183 6.6183 l 0.3437,0.3438 0.3438,0.3438 z m 75.4536,48.9929 h -17.8049 l 0.1417,-8.3803 0.1417,-8.3804 4.0167,-0.2578 4.0168,-0.2579 0.4469,-0.725 0.447,-0.7251 0.024,-20.6771 0.024,-20.6772 -0.2696,-1.3979 -0.2695,-1.398 -4.2182,-0.1491 -4.2181,-0.1493 v -8.5092 -8.5093 h 8.7671 8.7672 l 0.2579,7.7357 0.2578,7.7357 3.5589,0.1543 3.5589,0.1543 0.5669,-0.5648 0.5667,-0.5649 0.258,-7.3251 0.2578,-7.3252 h 17.5343 17.5343 v 8.5093 8.5092 l -12.8681,0.1383 -12.8682,0.1381 -0.3953,0.6355 -0.3953,0.6353 0.029,23.2072 0.029,23.2071 -0.045,7.6068 -0.045,7.6068 z"
       style="fill:#ffffff;stroke-width:0.515716"
       id="path1-3" /></g></svg>
